<svg id="visual" viewBox="0 0 960 540" width="960" height="540" xmlns="http://www.w3.org/2000/svg" xmlns:xlink="http://www.w3.org/1999/xlink" version="1.1"><path d="M0 128L20 131.3C40 134.7 80 141.3 120 140C160 138.7 200 129.3 240 133.2C280 137 320 154 360 156.5C400 159 440 147 480 147.8C520 148.7 560 162.3 600 165.2C640 168 680 160 720 151C760 142 800 132 840 127.7C880 123.3 920 124.7 940 125.3L960 126L960 0L940 0C920 0 880 0 840 0C800 0 760 0 720 0C680 0 640 0 600 0C560 0 520 0 480 0C440 0 400 0 360 0C320 0 280 0 240 0C200 0 160 0 120 0C80 0 40 0 20 0L0 0Z" fill="#a1153f"></path><path d="M0 140L20 133.5C40 127 80 114 120 113.5C160 113 200 125 240 125.8C280 126.7 320 116.3 360 112C400 107.7 440 109.3 480 115.5C520 121.7 560 132.3 600 133.3C640 134.3 680 125.7 720 125.2C760 124.7 800 132.3 840 134.7C880 137 920 134 940 132.5L960 131L960 0L940 0C920 0 880 0 840 0C800 0 760 0 720 0C680 0 640 0 600 0C560 0 520 0 480 0C440 0 400 0 360 0C320 0 280 0 240 0C200 0 160 0 120 0C80 0 40 0 20 0L0 0Z" fill="#961030"></path><path d="M0 109L20 103.3C40 97.7 80 86.3 120 83.5C160 80.7 200 86.3 240 87.7C280 89 320 86 360 87.7C400 89.3 440 95.7 480 93.5C520 91.3 560 80.7 600 80.3C640 80 680 90 720 90.8C760 91.7 800 83.3 840 80.8C880 78.3 920 81.7 940 83.3L960 85L960 0L940 0C920 0 880 0 840 0C800 0 760 0 720 0C680 0 640 0 600 0C560 0 520 0 480 0C440 0 400 0 360 0C320 0 280 0 240 0C200 0 160 0 120 0C80 0 40 0 20 0L0 0Z" fill="#8a0e21"></path><path d="M0 42L20 48.8C40 55.7 80 69.3 120 73.5C160 77.7 200 72.3 240 71.7C280 71 320 75 360 76.8C400 78.7 440 78.3 480 77.5C520 76.7 560 75.3 600 71.5C640 67.7 680 61.3 720 57.7C760 54 800 53 840 54C880 55 920 58 940 59.5L960 61L960 0L940 0C920 0 880 0 840 0C800 0 760 0 720 0C680 0 640 0 600 0C560 0 520 0 480 0C440 0 400 0 360 0C320 0 280 0 240 0C200 0 160 0 120 0C80 0 40 0 20 0L0 0Z" fill="#7d0e13"></path><path d="M0 28L20 28.2C40 28.3 80 28.7 120 27.5C160 26.3 200 23.7 240 22.2C280 20.7 320 20.3 360 22.7C400 25 440 30 480 33.8C520 37.7 560 40.3 600 40.2C640 40 680 37 720 34.2C760 31.3 800 28.7 840 31C880 33.3 920 40.7 940 44.3L960 48L960 0L940 0C920 0 880 0 840 0C800 0 760 0 720 0C680 0 640 0 600 0C560 0 520 0 480 0C440 0 400 0 360 0C320 0 280 0 240 0C200 0 160 0 120 0C80 0 40 0 20 0L0 0Z" fill="#700e01"></path></svg>