<svg id="visual" viewBox="0 0 960 540" width="960" height="540" xmlns="http://www.w3.org/2000/svg" xmlns:xlink="http://www.w3.org/1999/xlink" version="1.1"><path d="M0 213L48 213L48 210L96 210L96 226L144 226L144 225L192 225L192 193L240 193L240 240L288 240L288 219L336 219L336 187L384 187L384 213L432 213L432 240L480 240L480 203L528 203L528 225L576 225L576 185L624 185L624 239L672 239L672 224L720 224L720 239L768 239L768 208L816 208L816 209L864 209L864 237L912 237L912 228L960 228L960 198L960 0L960 0L912 0L912 0L864 0L864 0L816 0L816 0L768 0L768 0L720 0L720 0L672 0L672 0L624 0L624 0L576 0L576 0L528 0L528 0L480 0L480 0L432 0L432 0L384 0L384 0L336 0L336 0L288 0L288 0L240 0L240 0L192 0L192 0L144 0L144 0L96 0L96 0L48 0L48 0L0 0Z" fill="#5c06a2"></path><path d="M0 169L48 169L48 159L96 159L96 154L144 154L144 162L192 162L192 190L240 190L240 182L288 182L288 159L336 159L336 191L384 191L384 199L432 199L432 203L480 203L480 196L528 196L528 164L576 164L576 182L624 182L624 155L672 155L672 198L720 198L720 150L768 150L768 168L816 168L816 181L864 181L864 173L912 173L912 198L960 198L960 168L960 0L960 0L912 0L912 0L864 0L864 0L816 0L816 0L768 0L768 0L720 0L720 0L672 0L672 0L624 0L624 0L576 0L576 0L528 0L528 0L480 0L480 0L432 0L432 0L384 0L384 0L336 0L336 0L288 0L288 0L240 0L240 0L192 0L192 0L144 0L144 0L96 0L96 0L48 0L48 0L0 0Z" fill="#850089"></path><path d="M0 153L48 153L48 131L96 131L96 158L144 158L144 123L192 123L192 124L240 124L240 158L288 158L288 128L336 128L336 147L384 147L384 155L432 155L432 130L480 130L480 145L528 145L528 151L576 151L576 120L624 120L624 130L672 130L672 145L720 145L720 118L768 118L768 155L816 155L816 133L864 133L864 136L912 136L912 157L960 157L960 137L960 0L960 0L912 0L912 0L864 0L864 0L816 0L816 0L768 0L768 0L720 0L720 0L672 0L672 0L624 0L624 0L576 0L576 0L528 0L528 0L480 0L480 0L432 0L432 0L384 0L384 0L336 0L336 0L288 0L288 0L240 0L240 0L192 0L192 0L144 0L144 0L96 0L96 0L48 0L48 0L0 0Z" fill="#9b0073"></path><path d="M0 92L48 92L48 95L96 95L96 120L144 120L144 120L192 120L192 96L240 96L240 106L288 106L288 112L336 112L336 123L384 123L384 123L432 123L432 85L480 85L480 102L528 102L528 89L576 89L576 130L624 130L624 108L672 108L672 100L720 100L720 128L768 128L768 129L816 129L816 86L864 86L864 114L912 114L912 85L960 85L960 106L960 0L960 0L912 0L912 0L864 0L864 0L816 0L816 0L768 0L768 0L720 0L720 0L672 0L672 0L624 0L624 0L576 0L576 0L528 0L528 0L480 0L480 0L432 0L432 0L384 0L384 0L336 0L336 0L288 0L288 0L240 0L240 0L192 0L192 0L144 0L144 0L96 0L96 0L48 0L48 0L0 0Z" fill="#a60060"></path><path d="M0 83L48 83L48 72L96 72L96 68L144 68L144 52L192 52L192 71L240 71L240 58L288 58L288 85L336 85L336 69L384 69L384 87L432 87L432 92L480 92L480 53L528 53L528 74L576 74L576 76L624 76L624 80L672 80L672 92L720 92L720 64L768 64L768 59L816 59L816 86L864 86L864 80L912 80L912 75L960 75L960 63L960 0L960 0L912 0L912 0L864 0L864 0L816 0L816 0L768 0L768 0L720 0L720 0L672 0L672 0L624 0L624 0L576 0L576 0L528 0L528 0L480 0L480 0L432 0L432 0L384 0L384 0L336 0L336 0L288 0L288 0L240 0L240 0L192 0L192 0L144 0L144 0L96 0L96 0L48 0L48 0L0 0Z" fill="#ac064d"></path><path d="M0 28L48 28L48 22L96 22L96 51L144 51L144 50L192 50L192 46L240 46L240 20L288 20L288 24L336 24L336 21L384 21L384 24L432 24L432 29L480 29L480 23L528 23L528 49L576 49L576 30L624 30L624 30L672 30L672 50L720 50L720 20L768 20L768 19L816 19L816 52L864 52L864 41L912 41L912 50L960 50L960 56L960 0L960 0L912 0L912 0L864 0L864 0L816 0L816 0L768 0L768 0L720 0L720 0L672 0L672 0L624 0L624 0L576 0L576 0L528 0L528 0L480 0L480 0L432 0L432 0L384 0L384 0L336 0L336 0L288 0L288 0L240 0L240 0L192 0L192 0L144 0L144 0L96 0L96 0L48 0L48 0L0 0Z" fill="#ad1a3c"></path></svg>