<svg id="visual" viewBox="0 0 960 540" width="960" height="540" xmlns="http://www.w3.org/2000/svg" xmlns:xlink="http://www.w3.org/1999/xlink" version="1.1"><g transform="translate(471.6873345526092 254.3647564224473)"><path d="M164.1 -187.1C209.1 -157.8 239.5 -102.7 250.8 -43.5C262.2 15.8 254.5 79.1 227.2 135.8C200 192.4 153.2 242.3 102.4 245C51.7 247.7 -3 203.1 -69.5 182.6C-135.9 162 -214.1 165.4 -233.9 133.7C-253.6 102.1 -214.9 35.5 -184.9 -14.8C-154.8 -65.2 -133.3 -99.2 -103.9 -131.2C-74.6 -163.2 -37.3 -193.1 11.1 -206.4C59.6 -219.7 119.1 -216.3 164.1 -187.1" fill="#BB004B"></path></g></svg>