<svg id="visual" viewBox="0 0 960 540" width="960" height="540" xmlns="http://www.w3.org/2000/svg" xmlns:xlink="http://www.w3.org/1999/xlink" version="1.1"><path d="M0 110L48 110L48 117L96 117L96 84L144 84L144 87L192 87L192 151L240 151L240 57L288 57L288 99L336 99L336 163L384 163L384 111L432 111L432 58L480 58L480 132L528 132L528 87L576 87L576 167L624 167L624 59L672 59L672 89L720 89L720 59L768 59L768 121L816 121L816 120L864 120L864 64L912 64L912 81L960 81L960 140L960 541L960 541L912 541L912 541L864 541L864 541L816 541L816 541L768 541L768 541L720 541L720 541L672 541L672 541L624 541L624 541L576 541L576 541L528 541L528 541L480 541L480 541L432 541L432 541L384 541L384 541L336 541L336 541L288 541L288 541L240 541L240 541L192 541L192 541L144 541L144 541L96 541L96 541L48 541L48 541L0 541Z" fill="#5c06a2"></path><path d="M0 200L48 200L48 219L96 219L96 228L144 228L144 214L192 214L192 156L240 156L240 174L288 174L288 218L336 218L336 154L384 154L384 139L432 139L432 131L480 131L480 145L528 145L528 210L576 210L576 173L624 173L624 228L672 228L672 141L720 141L720 237L768 237L768 201L816 201L816 175L864 175L864 192L912 192L912 141L960 141L960 201L960 541L960 541L912 541L912 541L864 541L864 541L816 541L816 541L768 541L768 541L720 541L720 541L672 541L672 541L624 541L624 541L576 541L576 541L528 541L528 541L480 541L480 541L432 541L432 541L384 541L384 541L336 541L336 541L288 541L288 541L240 541L240 541L192 541L192 541L144 541L144 541L96 541L96 541L48 541L48 541L0 541Z" fill="#860076"></path><path d="M0 230L48 230L48 275L96 275L96 222L144 222L144 291L192 291L192 288L240 288L240 221L288 221L288 280L336 280L336 242L384 242L384 227L432 227L432 278L480 278L480 247L528 247L528 236L576 236L576 296L624 296L624 278L672 278L672 246L720 246L720 302L768 302L768 227L816 227L816 270L864 270L864 265L912 265L912 223L960 223L960 263L960 541L960 541L912 541L912 541L864 541L864 541L816 541L816 541L768 541L768 541L720 541L720 541L672 541L672 541L624 541L624 541L576 541L576 541L528 541L528 541L480 541L480 541L432 541L432 541L384 541L384 541L336 541L336 541L288 541L288 541L240 541L240 541L192 541L192 541L144 541L144 541L96 541L96 541L48 541L48 541L0 541Z" fill="#900051"></path><path d="M0 354L48 354L48 347L96 347L96 297L144 297L144 296L192 296L192 346L240 346L240 326L288 326L288 312L336 312L336 290L384 290L384 290L432 290L432 367L480 367L480 333L528 333L528 359L576 359L576 277L624 277L624 320L672 320L672 338L720 338L720 282L768 282L768 278L816 278L816 365L864 365L864 310L912 310L912 368L960 368L960 325L960 541L960 541L912 541L912 541L864 541L864 541L816 541L816 541L768 541L768 541L720 541L720 541L672 541L672 541L624 541L624 541L576 541L576 541L528 541L528 541L480 541L480 541L432 541L432 541L384 541L384 541L336 541L336 541L288 541L288 541L240 541L240 541L192 541L192 541L144 541L144 541L96 541L96 541L48 541L48 541L0 541Z" fill="#8a0036"></path><path d="M0 371L48 371L48 392L96 392L96 401L144 401L144 433L192 433L192 394L240 394L240 421L288 421L288 367L336 367L336 400L384 400L384 363L432 363L432 353L480 353L480 432L528 432L528 389L576 389L576 385L624 385L624 377L672 377L672 353L720 353L720 408L768 408L768 419L816 419L816 366L864 366L864 377L912 377L912 388L960 388L960 412L960 541L960 541L912 541L912 541L864 541L864 541L816 541L816 541L768 541L768 541L720 541L720 541L672 541L672 541L624 541L624 541L576 541L576 541L528 541L528 541L480 541L480 541L432 541L432 541L384 541L384 541L336 541L336 541L288 541L288 541L240 541L240 541L192 541L192 541L144 541L144 541L96 541L96 541L48 541L48 541L0 541Z" fill="#7f011d"></path><path d="M0 480L48 480L48 493L96 493L96 434L144 434L144 437L192 437L192 446L240 446L240 496L288 496L288 488L336 488L336 496L384 496L384 488L432 488L432 479L480 479L480 490L528 490L528 440L576 440L576 476L624 476L624 477L672 477L672 438L720 438L720 496L768 496L768 498L816 498L816 432L864 432L864 454L912 454L912 437L960 437L960 426L960 541L960 541L912 541L912 541L864 541L864 541L816 541L816 541L768 541L768 541L720 541L720 541L672 541L672 541L624 541L624 541L576 541L576 541L528 541L528 541L480 541L480 541L432 541L432 541L384 541L384 541L336 541L336 541L288 541L288 541L240 541L240 541L192 541L192 541L144 541L144 541L96 541L96 541L48 541L48 541L0 541Z" fill="#700e01"></path></svg>